<svg xmlns="http://www.w3.org/2000/svg" viewBox="0 0 1536 735" preserveAspectRatio="xMidYMid" width="1536" height="735" xmlns:xlink="http://www.w3.org/1999/xlink" style="shape-rendering:auto;display:block;background-position-x:0%;background-position-y:0%;background-size:auto;background-origin:padding-box;background-clip:border-box;background:scroll rgb(255, 178, 91) none  repeat;width:1536px;height:735px;;animation:none"><g><g transform="matrix(1,0,0,1,1358.38818359375,1066.4464111328125) matrix(-0.9009406057067091,-0.4339424212828566,0.4339424212828566,-0.9009406057067091,73.34990922119262,116.74415134947829)" style="transform:matrix(-0.900941, -0.433942, 0.433942, -0.900941, 1431.74, 1183.19);;animation:none"><path transform="matrix(0.5423511862754822,0,0,0.5423511862754822,0,0)" fill="#ffc46c" d="M87.422,66.495c-2.009-0.544-4.049-0.97-6.107-1.283c10.617-11.116,15.747-27.37,13.129-42.549 c-5.236,1.77-10.223,4.252-14.824,7.313c-4.13,2.747-7.948,5.961-11.374,9.55C67.425,24.863,61.344,10.451,50.991,0 c-4.015,5.451-7.281,11.444-9.753,17.744c-3.579,9.122-5.501,18.893-5.669,28.691c-4.79-7.979-11.256-14.955-18.858-20.322 c-4.514-3.187-9.431-5.806-14.616-7.72c-3.361,16.717,2.731,35.015,15.445,46.379c0.369,0.33,0.745,0.654,1.126,0.972 c-2.359,0.411-4.689,0.983-6.969,1.714C7.582,68.775,3.634,70.61,0,72.945c8.85,9.963,23.134,14.771,36.208,12.186 c3.524-0.697,7.002-1.919,9.887-4.057c0.073-0.054,0.145-0.111,0.218-0.167c-0.987,5.662-2.714,11.136-5.104,16.221l7.509,2.806 c1.698-5.797,2.631-11.748,2.814-17.669c0.107,0.076,0.215,0.152,0.324,0.225c3.142,2.114,6.863,3.232,10.607,3.796 C76.352,88.379,91.161,82.628,100,71.71C96.061,69.427,91.816,67.684,87.422,66.495z" style="fill:rgb(255, 196, 108);transform:matrix(0.542351, 0, 0, 0.542351, 0, 0);;animation:none"></path></g>
<g transform="matrix(1,0,0,1,103.02154541015625,324.70196533203125) matrix(-0.3133424890438492,0.9496401868917539,-0.9496401868917539,-0.3133424890438492,113.14913379678015,18.185115107604766)" style="transform:matrix(-0.313342, 0.94964, -0.94964, -0.313342, 216.171, 342.887);;animation:none"><path transform="matrix(0.6267064213752747,0,0,0.6267064213752747,0,0)" fill="#ff956e" d="M87.422,66.495c-2.009-0.544-4.049-0.97-6.107-1.283c10.617-11.116,15.747-27.37,13.129-42.549 c-5.236,1.77-10.223,4.252-14.824,7.313c-4.13,2.747-7.948,5.961-11.374,9.55C67.425,24.863,61.344,10.451,50.991,0 c-4.015,5.451-7.281,11.444-9.753,17.744c-3.579,9.122-5.501,18.893-5.669,28.691c-4.79-7.979-11.256-14.955-18.858-20.322 c-4.514-3.187-9.431-5.806-14.616-7.72c-3.361,16.717,2.731,35.015,15.445,46.379c0.369,0.33,0.745,0.654,1.126,0.972 c-2.359,0.411-4.689,0.983-6.969,1.714C7.582,68.775,3.634,70.61,0,72.945c8.85,9.963,23.134,14.771,36.208,12.186 c3.524-0.697,7.002-1.919,9.887-4.057c0.073-0.054,0.145-0.111,0.218-0.167c-0.987,5.662-2.714,11.136-5.104,16.221l7.509,2.806 c1.698-5.797,2.631-11.748,2.814-17.669c0.107,0.076,0.215,0.152,0.324,0.225c3.142,2.114,6.863,3.232,10.607,3.796 C76.352,88.379,91.161,82.628,100,71.71C96.061,69.427,91.816,67.684,87.422,66.495z" style="fill:rgb(255, 149, 110);transform:matrix(0.626706, 0, 0, 0.626706, 0, 0);;animation:none"></path></g>
<g transform="matrix(1,0,0,1,18.605751037597656,354.8332824707031) matrix(0.6421177524597959,0.7666060213538506,-0.7666060213538506,0.6421177524597959,56.22441344470274,-20.436188690682314)" style="transform:matrix(0.642118, 0.766606, -0.766606, 0.642118, 74.8302, 334.397);;animation:none"><path transform="matrix(0.6184371709823608,0,0,0.6184371709823608,0,0)" fill="#f86161" d="M87.422,66.495c-2.009-0.544-4.049-0.97-6.107-1.283c10.617-11.116,15.747-27.37,13.129-42.549 c-5.236,1.77-10.223,4.252-14.824,7.313c-4.13,2.747-7.948,5.961-11.374,9.55C67.425,24.863,61.344,10.451,50.991,0 c-4.015,5.451-7.281,11.444-9.753,17.744c-3.579,9.122-5.501,18.893-5.669,28.691c-4.79-7.979-11.256-14.955-18.858-20.322 c-4.514-3.187-9.431-5.806-14.616-7.72c-3.361,16.717,2.731,35.015,15.445,46.379c0.369,0.33,0.745,0.654,1.126,0.972 c-2.359,0.411-4.689,0.983-6.969,1.714C7.582,68.775,3.634,70.61,0,72.945c8.85,9.963,23.134,14.771,36.208,12.186 c3.524-0.697,7.002-1.919,9.887-4.057c0.073-0.054,0.145-0.111,0.218-0.167c-0.987,5.662-2.714,11.136-5.104,16.221l7.509,2.806 c1.698-5.797,2.631-11.748,2.814-17.669c0.107,0.076,0.215,0.152,0.324,0.225c3.142,2.114,6.863,3.232,10.607,3.796 C76.352,88.379,91.161,82.628,100,71.71C96.061,69.427,91.816,67.684,87.422,66.495z" style="fill:rgb(248, 97, 97);transform:matrix(0.618437, 0, 0, 0.618437, 0, 0);;animation:none"></path></g>
<g transform="matrix(1,0,0,1,507.28375244140625,603.0463256835938) matrix(-0.2537313602737913,-0.9672747266488521,0.9672747266488521,-0.2537313602737913,14.32283168124696,111.05030434613218)" style="transform:matrix(-0.253731, -0.967275, 0.967275, -0.253731, 521.607, 714.097);;animation:none"><path transform="matrix(0.8833154439926147,0,0,0.8833154439926147,0,0)" fill="#f86161" d="M87.422,66.495c-2.009-0.544-4.049-0.97-6.107-1.283c10.617-11.116,15.747-27.37,13.129-42.549 c-5.236,1.77-10.223,4.252-14.824,7.313c-4.13,2.747-7.948,5.961-11.374,9.55C67.425,24.863,61.344,10.451,50.991,0 c-4.015,5.451-7.281,11.444-9.753,17.744c-3.579,9.122-5.501,18.893-5.669,28.691c-4.79-7.979-11.256-14.955-18.858-20.322 c-4.514-3.187-9.431-5.806-14.616-7.72c-3.361,16.717,2.731,35.015,15.445,46.379c0.369,0.33,0.745,0.654,1.126,0.972 c-2.359,0.411-4.689,0.983-6.969,1.714C7.582,68.775,3.634,70.61,0,72.945c8.85,9.963,23.134,14.771,36.208,12.186 c3.524-0.697,7.002-1.919,9.887-4.057c0.073-0.054,0.145-0.111,0.218-0.167c-0.987,5.662-2.714,11.136-5.104,16.221l7.509,2.806 c1.698-5.797,2.631-11.748,2.814-17.669c0.107,0.076,0.215,0.152,0.324,0.225c3.142,2.114,6.863,3.232,10.607,3.796 C76.352,88.379,91.161,82.628,100,71.71C96.061,69.427,91.816,67.684,87.422,66.495z" style="fill:rgb(248, 97, 97);transform:matrix(0.883315, 0, 0, 0.883315, 0, 0);;animation:none"></path></g>
<g transform="matrix(1,0,0,1,867.260986328125,62.186614990234375) matrix(-0.6669663884976101,0.7450878046340947,-0.7450878046340947,-0.6669663884976101,120.60270965658525,46.09392919317577)" style="transform:matrix(-0.666966, 0.745088, -0.745088, -0.666966, 987.864, 108.281);;animation:none"><path transform="matrix(0.9074116945266724,0,0,0.9074116945266724,0,0)" fill="#ff956e" d="M87.422,66.495c-2.009-0.544-4.049-0.97-6.107-1.283c10.617-11.116,15.747-27.37,13.129-42.549 c-5.236,1.77-10.223,4.252-14.824,7.313c-4.13,2.747-7.948,5.961-11.374,9.55C67.425,24.863,61.344,10.451,50.991,0 c-4.015,5.451-7.281,11.444-9.753,17.744c-3.579,9.122-5.501,18.893-5.669,28.691c-4.79-7.979-11.256-14.955-18.858-20.322 c-4.514-3.187-9.431-5.806-14.616-7.72c-3.361,16.717,2.731,35.015,15.445,46.379c0.369,0.33,0.745,0.654,1.126,0.972 c-2.359,0.411-4.689,0.983-6.969,1.714C7.582,68.775,3.634,70.61,0,72.945c8.85,9.963,23.134,14.771,36.208,12.186 c3.524-0.697,7.002-1.919,9.887-4.057c0.073-0.054,0.145-0.111,0.218-0.167c-0.987,5.662-2.714,11.136-5.104,16.221l7.509,2.806 c1.698-5.797,2.631-11.748,2.814-17.669c0.107,0.076,0.215,0.152,0.324,0.225c3.142,2.114,6.863,3.232,10.607,3.796 C76.352,88.379,91.161,82.628,100,71.71C96.061,69.427,91.816,67.684,87.422,66.495z" style="fill:rgb(255, 149, 110);transform:matrix(0.907412, 0, 0, 0.907412, 0, 0);;animation:none"></path></g>
<g transform="matrix(1,0,0,1,1402.8604736328125,570.0802612304688) matrix(-0.7487144416035377,0.6628926647160178,-0.6628926647160178,-0.7487144416035377,120.58035531597778,54.291088844376)" style="transform:matrix(-0.748714, 0.662893, -0.662893, -0.748714, 1523.44, 624.371);;animation:none"><path transform="matrix(1.110121726989746,0,0,1.110121726989746,0,0)" fill="#f86161" d="M87.422,66.495c-2.009-0.544-4.049-0.97-6.107-1.283c10.617-11.116,15.747-27.37,13.129-42.549 c-5.236,1.77-10.223,4.252-14.824,7.313c-4.13,2.747-7.948,5.961-11.374,9.55C67.425,24.863,61.344,10.451,50.991,0 c-4.015,5.451-7.281,11.444-9.753,17.744c-3.579,9.122-5.501,18.893-5.669,28.691c-4.79-7.979-11.256-14.955-18.858-20.322 c-4.514-3.187-9.431-5.806-14.616-7.72c-3.361,16.717,2.731,35.015,15.445,46.379c0.369,0.33,0.745,0.654,1.126,0.972 c-2.359,0.411-4.689,0.983-6.969,1.714C7.582,68.775,3.634,70.61,0,72.945c8.85,9.963,23.134,14.771,36.208,12.186 c3.524-0.697,7.002-1.919,9.887-4.057c0.073-0.054,0.145-0.111,0.218-0.167c-0.987,5.662-2.714,11.136-5.104,16.221l7.509,2.806 c1.698-5.797,2.631-11.748,2.814-17.669c0.107,0.076,0.215,0.152,0.324,0.225c3.142,2.114,6.863,3.232,10.607,3.796 C76.352,88.379,91.161,82.628,100,71.71C96.061,69.427,91.816,67.684,87.422,66.495z" style="fill:rgb(248, 97, 97);transform:matrix(1.11012, 0, 0, 1.11012, 0, 0);;animation:none"></path></g>
<g transform="matrix(1,0,0,1,326.4320983886719,475.26873779296875) matrix(-0.8765376196743923,0.481333357763152,-0.481333357763152,-0.8765376196743923,117.89354887187721,69.76021309556201)" style="transform:matrix(-0.876538, 0.481333, -0.481333, -0.876538, 444.326, 545.029);;animation:none"><path transform="matrix(1.0475431680679321,0,0,1.0475431680679321,0,0)" fill="#f86161" d="M87.422,66.495c-2.009-0.544-4.049-0.97-6.107-1.283c10.617-11.116,15.747-27.37,13.129-42.549 c-5.236,1.77-10.223,4.252-14.824,7.313c-4.13,2.747-7.948,5.961-11.374,9.55C67.425,24.863,61.344,10.451,50.991,0 c-4.015,5.451-7.281,11.444-9.753,17.744c-3.579,9.122-5.501,18.893-5.669,28.691c-4.79-7.979-11.256-14.955-18.858-20.322 c-4.514-3.187-9.431-5.806-14.616-7.72c-3.361,16.717,2.731,35.015,15.445,46.379c0.369,0.33,0.745,0.654,1.126,0.972 c-2.359,0.411-4.689,0.983-6.969,1.714C7.582,68.775,3.634,70.61,0,72.945c8.85,9.963,23.134,14.771,36.208,12.186 c3.524-0.697,7.002-1.919,9.887-4.057c0.073-0.054,0.145-0.111,0.218-0.167c-0.987,5.662-2.714,11.136-5.104,16.221l7.509,2.806 c1.698-5.797,2.631-11.748,2.814-17.669c0.107,0.076,0.215,0.152,0.324,0.225c3.142,2.114,6.863,3.232,10.607,3.796 C76.352,88.379,91.161,82.628,100,71.71C96.061,69.427,91.816,67.684,87.422,66.495z" style="fill:rgb(248, 97, 97);transform:matrix(1.04754, 0, 0, 1.04754, 0, 0);;animation:none"></path></g>
<g transform="matrix(1,0,0,1,323.4963684082031,534.906005859375) matrix(0.9792252043483678,0.202775736144385,-0.202775736144385,0.9792252043483678,11.177526589800856,-9.10004702463764)" style="transform:matrix(0.979225, 0.202776, -0.202776, 0.979225, 334.674, 525.806);;animation:none"><path transform="matrix(1.0762735605239868,0,0,1.0762735605239868,0,0)" fill="#f86161" d="M87.422,66.495c-2.009-0.544-4.049-0.97-6.107-1.283c10.617-11.116,15.747-27.37,13.129-42.549 c-5.236,1.77-10.223,4.252-14.824,7.313c-4.13,2.747-7.948,5.961-11.374,9.55C67.425,24.863,61.344,10.451,50.991,0 c-4.015,5.451-7.281,11.444-9.753,17.744c-3.579,9.122-5.501,18.893-5.669,28.691c-4.79-7.979-11.256-14.955-18.858-20.322 c-4.514-3.187-9.431-5.806-14.616-7.72c-3.361,16.717,2.731,35.015,15.445,46.379c0.369,0.33,0.745,0.654,1.126,0.972 c-2.359,0.411-4.689,0.983-6.969,1.714C7.582,68.775,3.634,70.61,0,72.945c8.85,9.963,23.134,14.771,36.208,12.186 c3.524-0.697,7.002-1.919,9.887-4.057c0.073-0.054,0.145-0.111,0.218-0.167c-0.987,5.662-2.714,11.136-5.104,16.221l7.509,2.806 c1.698-5.797,2.631-11.748,2.814-17.669c0.107,0.076,0.215,0.152,0.324,0.225c3.142,2.114,6.863,3.232,10.607,3.796 C76.352,88.379,91.161,82.628,100,71.71C96.061,69.427,91.816,67.684,87.422,66.495z" style="fill:rgb(248, 97, 97);transform:matrix(1.07627, 0, 0, 1.07627, 0, 0);;animation:none"></path></g>
<g transform="matrix(1,0,0,1,1198.5545654296875,576.3004150390625) matrix(0.7722462010350054,0.6353233861483473,-0.6353233861483473,0.7722462010350054,43.15385925566709,-20.378479359167642)" style="transform:matrix(0.772246, 0.635323, -0.635323, 0.772246, 1241.71, 555.922);;animation:none"><path transform="matrix(0.7015541791915894,0,0,0.7015541791915894,0,0)" fill="#ffc46c" d="M87.422,66.495c-2.009-0.544-4.049-0.97-6.107-1.283c10.617-11.116,15.747-27.37,13.129-42.549 c-5.236,1.77-10.223,4.252-14.824,7.313c-4.13,2.747-7.948,5.961-11.374,9.55C67.425,24.863,61.344,10.451,50.991,0 c-4.015,5.451-7.281,11.444-9.753,17.744c-3.579,9.122-5.501,18.893-5.669,28.691c-4.79-7.979-11.256-14.955-18.858-20.322 c-4.514-3.187-9.431-5.806-14.616-7.72c-3.361,16.717,2.731,35.015,15.445,46.379c0.369,0.33,0.745,0.654,1.126,0.972 c-2.359,0.411-4.689,0.983-6.969,1.714C7.582,68.775,3.634,70.61,0,72.945c8.85,9.963,23.134,14.771,36.208,12.186 c3.524-0.697,7.002-1.919,9.887-4.057c0.073-0.054,0.145-0.111,0.218-0.167c-0.987,5.662-2.714,11.136-5.104,16.221l7.509,2.806 c1.698-5.797,2.631-11.748,2.814-17.669c0.107,0.076,0.215,0.152,0.324,0.225c3.142,2.114,6.863,3.232,10.607,3.796 C76.352,88.379,91.161,82.628,100,71.71C96.061,69.427,91.816,67.684,87.422,66.495z" style="fill:rgb(255, 196, 108);transform:matrix(0.701554, 0, 0, 0.701554, 0, 0);;animation:none"></path></g>
<g transform="matrix(1,0,0,1,1004.1414794921875,-85.51731872558594) matrix(0.9988264620611607,0.048432413592394856,-0.048432413592394856,0.9988264620611607,2.4802975765617106,-2.3629437826777746)" style="transform:matrix(0.998826, 0.0484324, -0.0484324, 0.998826, 1006.62, -87.8803);;animation:none"><path transform="matrix(0.8693379163742065,0,0,0.8693379163742065,0,0)" fill="#ffc46c" d="M87.422,66.495c-2.009-0.544-4.049-0.97-6.107-1.283c10.617-11.116,15.747-27.37,13.129-42.549 c-5.236,1.77-10.223,4.252-14.824,7.313c-4.13,2.747-7.948,5.961-11.374,9.55C67.425,24.863,61.344,10.451,50.991,0 c-4.015,5.451-7.281,11.444-9.753,17.744c-3.579,9.122-5.501,18.893-5.669,28.691c-4.79-7.979-11.256-14.955-18.858-20.322 c-4.514-3.187-9.431-5.806-14.616-7.72c-3.361,16.717,2.731,35.015,15.445,46.379c0.369,0.33,0.745,0.654,1.126,0.972 c-2.359,0.411-4.689,0.983-6.969,1.714C7.582,68.775,3.634,70.61,0,72.945c8.85,9.963,23.134,14.771,36.208,12.186 c3.524-0.697,7.002-1.919,9.887-4.057c0.073-0.054,0.145-0.111,0.218-0.167c-0.987,5.662-2.714,11.136-5.104,16.221l7.509,2.806 c1.698-5.797,2.631-11.748,2.814-17.669c0.107,0.076,0.215,0.152,0.324,0.225c3.142,2.114,6.863,3.232,10.607,3.796 C76.352,88.379,91.161,82.628,100,71.71C96.061,69.427,91.816,67.684,87.422,66.495z" style="fill:rgb(255, 196, 108);transform:matrix(0.869338, 0, 0, 0.869338, 0, 0);;animation:none"></path></g>
<g transform="matrix(1,0,0,1,208.8699951171875,463.773193359375) matrix(0.9569820235845965,0.2901472152820545,-0.2901472152820545,0.9569820235845965,16.658259584872894,-12.356461943332548)" style="transform:matrix(0.956982, 0.290147, -0.290147, 0.956982, 225.528, 451.417);;animation:none"><path transform="matrix(0.9615935683250427,0,0,0.9615935683250427,0,0)" fill="#ff956e" d="M87.422,66.495c-2.009-0.544-4.049-0.97-6.107-1.283c10.617-11.116,15.747-27.37,13.129-42.549 c-5.236,1.77-10.223,4.252-14.824,7.313c-4.13,2.747-7.948,5.961-11.374,9.55C67.425,24.863,61.344,10.451,50.991,0 c-4.015,5.451-7.281,11.444-9.753,17.744c-3.579,9.122-5.501,18.893-5.669,28.691c-4.79-7.979-11.256-14.955-18.858-20.322 c-4.514-3.187-9.431-5.806-14.616-7.72c-3.361,16.717,2.731,35.015,15.445,46.379c0.369,0.33,0.745,0.654,1.126,0.972 c-2.359,0.411-4.689,0.983-6.969,1.714C7.582,68.775,3.634,70.61,0,72.945c8.85,9.963,23.134,14.771,36.208,12.186 c3.524-0.697,7.002-1.919,9.887-4.057c0.073-0.054,0.145-0.111,0.218-0.167c-0.987,5.662-2.714,11.136-5.104,16.221l7.509,2.806 c1.698-5.797,2.631-11.748,2.814-17.669c0.107,0.076,0.215,0.152,0.324,0.225c3.142,2.114,6.863,3.232,10.607,3.796 C76.352,88.379,91.161,82.628,100,71.71C96.061,69.427,91.816,67.684,87.422,66.495z" style="fill:rgb(255, 149, 110);transform:matrix(0.961594, 0, 0, 0.961594, 0, 0);;animation:none"></path></g>
<g transform="matrix(1,0,0,1,1438.5059814453125,391.79132080078125) matrix(0.9690647051512143,0.24680680142611555,-0.24680680142611555,0.9690647051512143,13.887104813745054,-10.793575328866496)" style="transform:matrix(0.969065, 0.246807, -0.246807, 0.969065, 1452.39, 380.998);;animation:none"><path transform="matrix(1.1145963668823242,0,0,1.1145963668823242,0,0)" fill="#ffc46c" d="M87.422,66.495c-2.009-0.544-4.049-0.97-6.107-1.283c10.617-11.116,15.747-27.37,13.129-42.549 c-5.236,1.77-10.223,4.252-14.824,7.313c-4.13,2.747-7.948,5.961-11.374,9.55C67.425,24.863,61.344,10.451,50.991,0 c-4.015,5.451-7.281,11.444-9.753,17.744c-3.579,9.122-5.501,18.893-5.669,28.691c-4.79-7.979-11.256-14.955-18.858-20.322 c-4.514-3.187-9.431-5.806-14.616-7.72c-3.361,16.717,2.731,35.015,15.445,46.379c0.369,0.33,0.745,0.654,1.126,0.972 c-2.359,0.411-4.689,0.983-6.969,1.714C7.582,68.775,3.634,70.61,0,72.945c8.85,9.963,23.134,14.771,36.208,12.186 c3.524-0.697,7.002-1.919,9.887-4.057c0.073-0.054,0.145-0.111,0.218-0.167c-0.987,5.662-2.714,11.136-5.104,16.221l7.509,2.806 c1.698-5.797,2.631-11.748,2.814-17.669c0.107,0.076,0.215,0.152,0.324,0.225c3.142,2.114,6.863,3.232,10.607,3.796 C76.352,88.379,91.161,82.628,100,71.71C96.061,69.427,91.816,67.684,87.422,66.495z" style="fill:rgb(255, 196, 108);transform:matrix(1.1146, 0, 0, 1.1146, 0, 0);;animation:none"></path></g>
<g transform="matrix(1,0,0,1,2642.102783203125,791.196533203125) matrix(-0.9811956156155519,0.19301596798404577,-0.19301596798404577,-0.9811956156155519,108.71057917997987,89.4089823815753)" style="transform:matrix(-0.981196, 0.193016, -0.193016, -0.981196, 2750.81, 880.605);;animation:none"><path transform="matrix(0.7104958295822144,0,0,0.7104958295822144,0,0)" fill="#ff9f32" d="M87.422,66.495c-2.009-0.544-4.049-0.97-6.107-1.283c10.617-11.116,15.747-27.37,13.129-42.549 c-5.236,1.77-10.223,4.252-14.824,7.313c-4.13,2.747-7.948,5.961-11.374,9.55C67.425,24.863,61.344,10.451,50.991,0 c-4.015,5.451-7.281,11.444-9.753,17.744c-3.579,9.122-5.501,18.893-5.669,28.691c-4.79-7.979-11.256-14.955-18.858-20.322 c-4.514-3.187-9.431-5.806-14.616-7.72c-3.361,16.717,2.731,35.015,15.445,46.379c0.369,0.33,0.745,0.654,1.126,0.972 c-2.359,0.411-4.689,0.983-6.969,1.714C7.582,68.775,3.634,70.61,0,72.945c8.85,9.963,23.134,14.771,36.208,12.186 c3.524-0.697,7.002-1.919,9.887-4.057c0.073-0.054,0.145-0.111,0.218-0.167c-0.987,5.662-2.714,11.136-5.104,16.221l7.509,2.806 c1.698-5.797,2.631-11.748,2.814-17.669c0.107,0.076,0.215,0.152,0.324,0.225c3.142,2.114,6.863,3.232,10.607,3.796 C76.352,88.379,91.161,82.628,100,71.71C96.061,69.427,91.816,67.684,87.422,66.495z" style="fill:rgb(255, 159, 50);transform:matrix(0.710496, 0, 0, 0.710496, 0, 0);;animation:none"></path></g>
<g transform="matrix(1,0,0,1,1065.8133544921875,765.6919555664062) matrix(-0.9958605943305259,0.09089376579090426,-0.09089376579090426,-0.9958605943305259,104.3377180060715,95.24834142698109)" style="transform:matrix(-0.995861, 0.0908938, -0.0908938, -0.995861, 1170.15, 860.94);;animation:none"><path transform="matrix(0.5275962352752686,0,0,0.5275962352752686,0,0)" fill="#ff956e" d="M87.422,66.495c-2.009-0.544-4.049-0.97-6.107-1.283c10.617-11.116,15.747-27.37,13.129-42.549 c-5.236,1.77-10.223,4.252-14.824,7.313c-4.13,2.747-7.948,5.961-11.374,9.55C67.425,24.863,61.344,10.451,50.991,0 c-4.015,5.451-7.281,11.444-9.753,17.744c-3.579,9.122-5.501,18.893-5.669,28.691c-4.79-7.979-11.256-14.955-18.858-20.322 c-4.514-3.187-9.431-5.806-14.616-7.72c-3.361,16.717,2.731,35.015,15.445,46.379c0.369,0.33,0.745,0.654,1.126,0.972 c-2.359,0.411-4.689,0.983-6.969,1.714C7.582,68.775,3.634,70.61,0,72.945c8.85,9.963,23.134,14.771,36.208,12.186 c3.524-0.697,7.002-1.919,9.887-4.057c0.073-0.054,0.145-0.111,0.218-0.167c-0.987,5.662-2.714,11.136-5.104,16.221l7.509,2.806 c1.698-5.797,2.631-11.748,2.814-17.669c0.107,0.076,0.215,0.152,0.324,0.225c3.142,2.114,6.863,3.232,10.607,3.796 C76.352,88.379,91.161,82.628,100,71.71C96.061,69.427,91.816,67.684,87.422,66.495z" style="fill:rgb(255, 149, 110);transform:matrix(0.527596, 0, 0, 0.527596, 0, 0);;animation:none"></path></g>
<g transform="matrix(1,0,0,1,1429.2110595703125,663.0487670898438) matrix(-0.8509690929658831,0.5252157678676662,-0.5252157678676662,-0.8509690929658831,118.80924304167746,66.28766625491085)" style="transform:matrix(-0.850969, 0.525216, -0.525216, -0.850969, 1548.02, 729.336);;animation:none"><path transform="matrix(0.7049118280410767,0,0,0.7049118280410767,0,0)" fill="#f86161" d="M87.422,66.495c-2.009-0.544-4.049-0.97-6.107-1.283c10.617-11.116,15.747-27.37,13.129-42.549 c-5.236,1.77-10.223,4.252-14.824,7.313c-4.13,2.747-7.948,5.961-11.374,9.55C67.425,24.863,61.344,10.451,50.991,0 c-4.015,5.451-7.281,11.444-9.753,17.744c-3.579,9.122-5.501,18.893-5.669,28.691c-4.79-7.979-11.256-14.955-18.858-20.322 c-4.514-3.187-9.431-5.806-14.616-7.72c-3.361,16.717,2.731,35.015,15.445,46.379c0.369,0.33,0.745,0.654,1.126,0.972 c-2.359,0.411-4.689,0.983-6.969,1.714C7.582,68.775,3.634,70.61,0,72.945c8.85,9.963,23.134,14.771,36.208,12.186 c3.524-0.697,7.002-1.919,9.887-4.057c0.073-0.054,0.145-0.111,0.218-0.167c-0.987,5.662-2.714,11.136-5.104,16.221l7.509,2.806 c1.698-5.797,2.631-11.748,2.814-17.669c0.107,0.076,0.215,0.152,0.324,0.225c3.142,2.114,6.863,3.232,10.607,3.796 C76.352,88.379,91.161,82.628,100,71.71C96.061,69.427,91.816,67.684,87.422,66.495z" style="fill:rgb(248, 97, 97);transform:matrix(0.704912, 0, 0, 0.704912, 0, 0);;animation:none"></path></g>
<g transform="matrix(1,0,0,1,297.6410827636719,155.68777465820312) matrix(0.480810375310483,0.8768246021832374,-0.8768246021832374,0.480810375310483,69.80071134363772,-17.881748874686025)" style="transform:matrix(0.48081, 0.876825, -0.876825, 0.48081, 367.442, 137.806);;animation:none"><path transform="matrix(0.6925639510154724,0,0,0.6925639510154724,0,0)" fill="#ff9f32" d="M87.422,66.495c-2.009-0.544-4.049-0.97-6.107-1.283c10.617-11.116,15.747-27.37,13.129-42.549 c-5.236,1.77-10.223,4.252-14.824,7.313c-4.13,2.747-7.948,5.961-11.374,9.55C67.425,24.863,61.344,10.451,50.991,0 c-4.015,5.451-7.281,11.444-9.753,17.744c-3.579,9.122-5.501,18.893-5.669,28.691c-4.79-7.979-11.256-14.955-18.858-20.322 c-4.514-3.187-9.431-5.806-14.616-7.72c-3.361,16.717,2.731,35.015,15.445,46.379c0.369,0.33,0.745,0.654,1.126,0.972 c-2.359,0.411-4.689,0.983-6.969,1.714C7.582,68.775,3.634,70.61,0,72.945c8.85,9.963,23.134,14.771,36.208,12.186 c3.524-0.697,7.002-1.919,9.887-4.057c0.073-0.054,0.145-0.111,0.218-0.167c-0.987,5.662-2.714,11.136-5.104,16.221l7.509,2.806 c1.698-5.797,2.631-11.748,2.814-17.669c0.107,0.076,0.215,0.152,0.324,0.225c3.142,2.114,6.863,3.232,10.607,3.796 C76.352,88.379,91.161,82.628,100,71.71C96.061,69.427,91.816,67.684,87.422,66.495z" style="fill:rgb(255, 159, 50);transform:matrix(0.692564, 0, 0, 0.692564, 0, 0);;animation:none"></path></g>
<g transform="matrix(1,0,0,1,769.1405639648438,632.9131469726562) matrix(0.9016963349176467,0.43236988747608585,-0.43236988747608585,0.9016963349176467,26.533677627921957,-16.70331111968663)" style="transform:matrix(0.901696, 0.43237, -0.43237, 0.901696, 795.674, 616.21);;animation:none"><path transform="matrix(0.8214876651763916,0,0,0.8214876651763916,0,0)" fill="#ff9f32" d="M87.422,66.495c-2.009-0.544-4.049-0.97-6.107-1.283c10.617-11.116,15.747-27.37,13.129-42.549 c-5.236,1.77-10.223,4.252-14.824,7.313c-4.13,2.747-7.948,5.961-11.374,9.55C67.425,24.863,61.344,10.451,50.991,0 c-4.015,5.451-7.281,11.444-9.753,17.744c-3.579,9.122-5.501,18.893-5.669,28.691c-4.79-7.979-11.256-14.955-18.858-20.322 c-4.514-3.187-9.431-5.806-14.616-7.72c-3.361,16.717,2.731,35.015,15.445,46.379c0.369,0.33,0.745,0.654,1.126,0.972 c-2.359,0.411-4.689,0.983-6.969,1.714C7.582,68.775,3.634,70.61,0,72.945c8.85,9.963,23.134,14.771,36.208,12.186 c3.524-0.697,7.002-1.919,9.887-4.057c0.073-0.054,0.145-0.111,0.218-0.167c-0.987,5.662-2.714,11.136-5.104,16.221l7.509,2.806 c1.698-5.797,2.631-11.748,2.814-17.669c0.107,0.076,0.215,0.152,0.324,0.225c3.142,2.114,6.863,3.232,10.607,3.796 C76.352,88.379,91.161,82.628,100,71.71C96.061,69.427,91.816,67.684,87.422,66.495z" style="fill:rgb(255, 159, 50);transform:matrix(0.821488, 0, 0, 0.821488, 0, 0);;animation:none"></path></g>
<g transform="matrix(1,0,0,1,206.26095581054688,464.9747314453125) matrix(0.5900376954163727,0.8073756981651948,-0.8073756981651948,0.5900376954163727,60.86690013744111,-19.870669679078375)" style="transform:matrix(0.590038, 0.807376, -0.807376, 0.590038, 267.128, 445.104);;animation:none"><path transform="matrix(1.1116443872451782,0,0,1.1116443872451782,0,0)" fill="#ffc46c" d="M87.422,66.495c-2.009-0.544-4.049-0.97-6.107-1.283c10.617-11.116,15.747-27.37,13.129-42.549 c-5.236,1.77-10.223,4.252-14.824,7.313c-4.13,2.747-7.948,5.961-11.374,9.55C67.425,24.863,61.344,10.451,50.991,0 c-4.015,5.451-7.281,11.444-9.753,17.744c-3.579,9.122-5.501,18.893-5.669,28.691c-4.79-7.979-11.256-14.955-18.858-20.322 c-4.514-3.187-9.431-5.806-14.616-7.72c-3.361,16.717,2.731,35.015,15.445,46.379c0.369,0.33,0.745,0.654,1.126,0.972 c-2.359,0.411-4.689,0.983-6.969,1.714C7.582,68.775,3.634,70.61,0,72.945c8.85,9.963,23.134,14.771,36.208,12.186 c3.524-0.697,7.002-1.919,9.887-4.057c0.073-0.054,0.145-0.111,0.218-0.167c-0.987,5.662-2.714,11.136-5.104,16.221l7.509,2.806 c1.698-5.797,2.631-11.748,2.814-17.669c0.107,0.076,0.215,0.152,0.324,0.225c3.142,2.114,6.863,3.232,10.607,3.796 C76.352,88.379,91.161,82.628,100,71.71C96.061,69.427,91.816,67.684,87.422,66.495z" style="fill:rgb(255, 196, 108);transform:matrix(1.11164, 0, 0, 1.11164, 0, 0);;animation:none"></path></g>
<g transform="matrix(1,0,0,1,1729.140869140625,260.9793701171875) matrix(0.874805823027545,-0.48447370619786956,0.48447370619786956,0.874805823027545,-17.963976461270732,30.48339415851623)" style="transform:matrix(0.874806, -0.484474, 0.484474, 0.874806, 1711.18, 291.463);;animation:none"><path transform="matrix(0.6973281502723694,0,0,0.6973281502723694,0,0)" fill="#ffc46c" d="M87.422,66.495c-2.009-0.544-4.049-0.97-6.107-1.283c10.617-11.116,15.747-27.37,13.129-42.549 c-5.236,1.77-10.223,4.252-14.824,7.313c-4.13,2.747-7.948,5.961-11.374,9.55C67.425,24.863,61.344,10.451,50.991,0 c-4.015,5.451-7.281,11.444-9.753,17.744c-3.579,9.122-5.501,18.893-5.669,28.691c-4.79-7.979-11.256-14.955-18.858-20.322 c-4.514-3.187-9.431-5.806-14.616-7.72c-3.361,16.717,2.731,35.015,15.445,46.379c0.369,0.33,0.745,0.654,1.126,0.972 c-2.359,0.411-4.689,0.983-6.969,1.714C7.582,68.775,3.634,70.61,0,72.945c8.85,9.963,23.134,14.771,36.208,12.186 c3.524-0.697,7.002-1.919,9.887-4.057c0.073-0.054,0.145-0.111,0.218-0.167c-0.987,5.662-2.714,11.136-5.104,16.221l7.509,2.806 c1.698-5.797,2.631-11.748,2.814-17.669c0.107,0.076,0.215,0.152,0.324,0.225c3.142,2.114,6.863,3.232,10.607,3.796 C76.352,88.379,91.161,82.628,100,71.71C96.061,69.427,91.816,67.684,87.422,66.495z" style="fill:rgb(255, 196, 108);transform:matrix(0.697328, 0, 0, 0.697328, 0, 0);;animation:none"></path></g>
<g transform="matrix(1,0,0,1,1020.0029907226562,-13.086418151855469) matrix(-0.11014372534627997,0.9939156703497753,-0.9939156703497753,-0.11014372534627997,105.20296978480278,5.811402749825227)" style="transform:matrix(-0.110144, 0.993916, -0.993916, -0.110144, 1125.21, -7.27502);;animation:none"><path transform="matrix(0.9560995697975159,0,0,0.9560995697975159,0,0)" fill="#ffc46c" d="M87.422,66.495c-2.009-0.544-4.049-0.97-6.107-1.283c10.617-11.116,15.747-27.37,13.129-42.549 c-5.236,1.77-10.223,4.252-14.824,7.313c-4.13,2.747-7.948,5.961-11.374,9.55C67.425,24.863,61.344,10.451,50.991,0 c-4.015,5.451-7.281,11.444-9.753,17.744c-3.579,9.122-5.501,18.893-5.669,28.691c-4.79-7.979-11.256-14.955-18.858-20.322 c-4.514-3.187-9.431-5.806-14.616-7.72c-3.361,16.717,2.731,35.015,15.445,46.379c0.369,0.33,0.745,0.654,1.126,0.972 c-2.359,0.411-4.689,0.983-6.969,1.714C7.582,68.775,3.634,70.61,0,72.945c8.85,9.963,23.134,14.771,36.208,12.186 c3.524-0.697,7.002-1.919,9.887-4.057c0.073-0.054,0.145-0.111,0.218-0.167c-0.987,5.662-2.714,11.136-5.104,16.221l7.509,2.806 c1.698-5.797,2.631-11.748,2.814-17.669c0.107,0.076,0.215,0.152,0.324,0.225c3.142,2.114,6.863,3.232,10.607,3.796 C76.352,88.379,91.161,82.628,100,71.71C96.061,69.427,91.816,67.684,87.422,66.495z" style="fill:rgb(255, 196, 108);transform:matrix(0.9561, 0, 0, 0.9561, 0, 0);;animation:none"></path></g>
<g transform="matrix(1,0,0,1,1575.849609375,899.10888671875) matrix(0.34865419371747447,0.9372514354233968,-0.9372514354233968,0.34865419371747447,79.42986208529612,-14.295281457043558)" style="transform:matrix(0.348654, 0.937251, -0.937251, 0.348654, 1655.28, 884.814);;animation:none"><path transform="matrix(0.9844849109649658,0,0,0.9844849109649658,0,0)" fill="#ff9f32" d="M87.422,66.495c-2.009-0.544-4.049-0.97-6.107-1.283c10.617-11.116,15.747-27.37,13.129-42.549 c-5.236,1.77-10.223,4.252-14.824,7.313c-4.13,2.747-7.948,5.961-11.374,9.55C67.425,24.863,61.344,10.451,50.991,0 c-4.015,5.451-7.281,11.444-9.753,17.744c-3.579,9.122-5.501,18.893-5.669,28.691c-4.79-7.979-11.256-14.955-18.858-20.322 c-4.514-3.187-9.431-5.806-14.616-7.72c-3.361,16.717,2.731,35.015,15.445,46.379c0.369,0.33,0.745,0.654,1.126,0.972 c-2.359,0.411-4.689,0.983-6.969,1.714C7.582,68.775,3.634,70.61,0,72.945c8.85,9.963,23.134,14.771,36.208,12.186 c3.524-0.697,7.002-1.919,9.887-4.057c0.073-0.054,0.145-0.111,0.218-0.167c-0.987,5.662-2.714,11.136-5.104,16.221l7.509,2.806 c1.698-5.797,2.631-11.748,2.814-17.669c0.107,0.076,0.215,0.152,0.324,0.225c3.142,2.114,6.863,3.232,10.607,3.796 C76.352,88.379,91.161,82.628,100,71.71C96.061,69.427,91.816,67.684,87.422,66.495z" style="fill:rgb(255, 159, 50);transform:matrix(0.984485, 0, 0, 0.984485, 0, 0);;animation:none"></path></g>
<g transform="matrix(1,0,0,1,1043.6351318359375,777.6163330078125) matrix(-0.3317337139670426,-0.9433730667226154,0.9433730667226154,-0.3317337139670426,19.418032362221357,113.7553390344829)" style="transform:matrix(-0.331734, -0.943373, 0.943373, -0.331734, 1063.05, 891.372);;animation:none"><path transform="matrix(0.7904956340789795,0,0,0.7904956340789795,0,0)" fill="#f86161" d="M87.422,66.495c-2.009-0.544-4.049-0.97-6.107-1.283c10.617-11.116,15.747-27.37,13.129-42.549 c-5.236,1.77-10.223,4.252-14.824,7.313c-4.13,2.747-7.948,5.961-11.374,9.55C67.425,24.863,61.344,10.451,50.991,0 c-4.015,5.451-7.281,11.444-9.753,17.744c-3.579,9.122-5.501,18.893-5.669,28.691c-4.79-7.979-11.256-14.955-18.858-20.322 c-4.514-3.187-9.431-5.806-14.616-7.72c-3.361,16.717,2.731,35.015,15.445,46.379c0.369,0.33,0.745,0.654,1.126,0.972 c-2.359,0.411-4.689,0.983-6.969,1.714C7.582,68.775,3.634,70.61,0,72.945c8.85,9.963,23.134,14.771,36.208,12.186 c3.524-0.697,7.002-1.919,9.887-4.057c0.073-0.054,0.145-0.111,0.218-0.167c-0.987,5.662-2.714,11.136-5.104,16.221l7.509,2.806 c1.698-5.797,2.631-11.748,2.814-17.669c0.107,0.076,0.215,0.152,0.324,0.225c3.142,2.114,6.863,3.232,10.607,3.796 C76.352,88.379,91.161,82.628,100,71.71C96.061,69.427,91.816,67.684,87.422,66.495z" style="fill:rgb(248, 97, 97);transform:matrix(0.790496, 0, 0, 0.790496, 0, 0);;animation:none"></path></g>
<g transform="matrix(1,0,0,1,1357.181884765625,753.5838012695312) matrix(-0.9043310536864114,-0.42683175296412146,0.42683175296412146,-0.9043310536864114,73.8749650361145,116.55814033252665)" style="transform:matrix(-0.904331, -0.426832, 0.426832, -0.904331, 1431.06, 870.142);;animation:none"><path transform="matrix(0.8634267449378967,0,0,0.8634267449378967,0,0)" fill="#ff956e" d="M87.422,66.495c-2.009-0.544-4.049-0.97-6.107-1.283c10.617-11.116,15.747-27.37,13.129-42.549 c-5.236,1.77-10.223,4.252-14.824,7.313c-4.13,2.747-7.948,5.961-11.374,9.55C67.425,24.863,61.344,10.451,50.991,0 c-4.015,5.451-7.281,11.444-9.753,17.744c-3.579,9.122-5.501,18.893-5.669,28.691c-4.79-7.979-11.256-14.955-18.858-20.322 c-4.514-3.187-9.431-5.806-14.616-7.72c-3.361,16.717,2.731,35.015,15.445,46.379c0.369,0.33,0.745,0.654,1.126,0.972 c-2.359,0.411-4.689,0.983-6.969,1.714C7.582,68.775,3.634,70.61,0,72.945c8.85,9.963,23.134,14.771,36.208,12.186 c3.524-0.697,7.002-1.919,9.887-4.057c0.073-0.054,0.145-0.111,0.218-0.167c-0.987,5.662-2.714,11.136-5.104,16.221l7.509,2.806 c1.698-5.797,2.631-11.748,2.814-17.669c0.107,0.076,0.215,0.152,0.324,0.225c3.142,2.114,6.863,3.232,10.607,3.796 C76.352,88.379,91.161,82.628,100,71.71C96.061,69.427,91.816,67.684,87.422,66.495z" style="fill:rgb(255, 149, 110);transform:matrix(0.863427, 0, 0, 0.863427, 0, 0);;animation:none"></path></g>
<g transform="matrix(1,0,0,1,1174.37060546875,666.3863525390625) matrix(-0.5894671076814575,-0.8077923798610983,0.8077923798610983,-0.5894671076814575,39.08373639101796,119.86297437712778)" style="transform:matrix(-0.589467, -0.807792, 0.807792, -0.589467, 1213.45, 786.249);;animation:none"><path transform="matrix(0.9242862462997437,0,0,0.9242862462997437,0,0)" fill="#ff9f32" d="M87.422,66.495c-2.009-0.544-4.049-0.97-6.107-1.283c10.617-11.116,15.747-27.37,13.129-42.549 c-5.236,1.77-10.223,4.252-14.824,7.313c-4.13,2.747-7.948,5.961-11.374,9.55C67.425,24.863,61.344,10.451,50.991,0 c-4.015,5.451-7.281,11.444-9.753,17.744c-3.579,9.122-5.501,18.893-5.669,28.691c-4.79-7.979-11.256-14.955-18.858-20.322 c-4.514-3.187-9.431-5.806-14.616-7.72c-3.361,16.717,2.731,35.015,15.445,46.379c0.369,0.33,0.745,0.654,1.126,0.972 c-2.359,0.411-4.689,0.983-6.969,1.714C7.582,68.775,3.634,70.61,0,72.945c8.85,9.963,23.134,14.771,36.208,12.186 c3.524-0.697,7.002-1.919,9.887-4.057c0.073-0.054,0.145-0.111,0.218-0.167c-0.987,5.662-2.714,11.136-5.104,16.221l7.509,2.806 c1.698-5.797,2.631-11.748,2.814-17.669c0.107,0.076,0.215,0.152,0.324,0.225c3.142,2.114,6.863,3.232,10.607,3.796 C76.352,88.379,91.161,82.628,100,71.71C96.061,69.427,91.816,67.684,87.422,66.495z" style="fill:rgb(255, 159, 50);transform:matrix(0.924286, 0, 0, 0.924286, 0, 0);;animation:none"></path></g>
<g transform="matrix(1,0,0,1,1366.3817138671875,1175.8385009765625) matrix(0.8825697232524492,-0.47018154323420136,0.47018154323420136,0.8825697232524492,-17.63756332433252,29.38059099908761)" style="transform:matrix(0.88257, -0.470182, 0.470182, 0.88257, 1348.74, 1205.22);;animation:none"><path transform="matrix(0.8501789569854736,0,0,0.8501789569854736,0,0)" fill="#f86161" d="M87.422,66.495c-2.009-0.544-4.049-0.97-6.107-1.283c10.617-11.116,15.747-27.37,13.129-42.549 c-5.236,1.77-10.223,4.252-14.824,7.313c-4.13,2.747-7.948,5.961-11.374,9.55C67.425,24.863,61.344,10.451,50.991,0 c-4.015,5.451-7.281,11.444-9.753,17.744c-3.579,9.122-5.501,18.893-5.669,28.691c-4.79-7.979-11.256-14.955-18.858-20.322 c-4.514-3.187-9.431-5.806-14.616-7.72c-3.361,16.717,2.731,35.015,15.445,46.379c0.369,0.33,0.745,0.654,1.126,0.972 c-2.359,0.411-4.689,0.983-6.969,1.714C7.582,68.775,3.634,70.61,0,72.945c8.85,9.963,23.134,14.771,36.208,12.186 c3.524-0.697,7.002-1.919,9.887-4.057c0.073-0.054,0.145-0.111,0.218-0.167c-0.987,5.662-2.714,11.136-5.104,16.221l7.509,2.806 c1.698-5.797,2.631-11.748,2.814-17.669c0.107,0.076,0.215,0.152,0.324,0.225c3.142,2.114,6.863,3.232,10.607,3.796 C76.352,88.379,91.161,82.628,100,71.71C96.061,69.427,91.816,67.684,87.422,66.495z" style="fill:rgb(248, 97, 97);transform:matrix(0.850179, 0, 0, 0.850179, 0, 0);;animation:none"></path></g>
<g transform="matrix(1,0,0,1,1507.038818359375,492.4637451171875) matrix(0.4904715824205895,-0.8714571858891537,0.8714571858891537,0.4904715824205895,-18.09643841548717,69.0492801734282)" style="transform:matrix(0.490472, -0.871457, 0.871457, 0.490472, 1488.94, 561.513);;animation:none"><path transform="matrix(1.0589128732681274,0,0,1.0589128732681274,0,0)" fill="#f86161" d="M87.422,66.495c-2.009-0.544-4.049-0.97-6.107-1.283c10.617-11.116,15.747-27.37,13.129-42.549 c-5.236,1.77-10.223,4.252-14.824,7.313c-4.13,2.747-7.948,5.961-11.374,9.55C67.425,24.863,61.344,10.451,50.991,0 c-4.015,5.451-7.281,11.444-9.753,17.744c-3.579,9.122-5.501,18.893-5.669,28.691c-4.79-7.979-11.256-14.955-18.858-20.322 c-4.514-3.187-9.431-5.806-14.616-7.72c-3.361,16.717,2.731,35.015,15.445,46.379c0.369,0.33,0.745,0.654,1.126,0.972 c-2.359,0.411-4.689,0.983-6.969,1.714C7.582,68.775,3.634,70.61,0,72.945c8.85,9.963,23.134,14.771,36.208,12.186 c3.524-0.697,7.002-1.919,9.887-4.057c0.073-0.054,0.145-0.111,0.218-0.167c-0.987,5.662-2.714,11.136-5.104,16.221l7.509,2.806 c1.698-5.797,2.631-11.748,2.814-17.669c0.107,0.076,0.215,0.152,0.324,0.225c3.142,2.114,6.863,3.232,10.607,3.796 C76.352,88.379,91.161,82.628,100,71.71C96.061,69.427,91.816,67.684,87.422,66.495z" style="fill:rgb(248, 97, 97);transform:matrix(1.05891, 0, 0, 1.05891, 0, 0);;animation:none"></path></g>
<g transform="matrix(1,0,0,1,885.7906494140625,186.58132934570312) matrix(0.9727188381308081,0.23198720211565743,-0.23198720211565743,0.9727188381308081,12.963418199242469,-10.235302012323274)" style="transform:matrix(0.972719, 0.231987, -0.231987, 0.972719, 898.754, 176.346);;animation:none"><path transform="matrix(0.528912365436554,0,0,0.528912365436554,0,0)" fill="#ff9f32" d="M87.422,66.495c-2.009-0.544-4.049-0.97-6.107-1.283c10.617-11.116,15.747-27.37,13.129-42.549 c-5.236,1.77-10.223,4.252-14.824,7.313c-4.13,2.747-7.948,5.961-11.374,9.55C67.425,24.863,61.344,10.451,50.991,0 c-4.015,5.451-7.281,11.444-9.753,17.744c-3.579,9.122-5.501,18.893-5.669,28.691c-4.79-7.979-11.256-14.955-18.858-20.322 c-4.514-3.187-9.431-5.806-14.616-7.72c-3.361,16.717,2.731,35.015,15.445,46.379c0.369,0.33,0.745,0.654,1.126,0.972 c-2.359,0.411-4.689,0.983-6.969,1.714C7.582,68.775,3.634,70.61,0,72.945c8.85,9.963,23.134,14.771,36.208,12.186 c3.524-0.697,7.002-1.919,9.887-4.057c0.073-0.054,0.145-0.111,0.218-0.167c-0.987,5.662-2.714,11.136-5.104,16.221l7.509,2.806 c1.698-5.797,2.631-11.748,2.814-17.669c0.107,0.076,0.215,0.152,0.324,0.225c3.142,2.114,6.863,3.232,10.607,3.796 C76.352,88.379,91.161,82.628,100,71.71C96.061,69.427,91.816,67.684,87.422,66.495z" style="fill:rgb(255, 159, 50);transform:matrix(0.528912, 0, 0, 0.528912, 0, 0);;animation:none"></path></g>
<g transform="matrix(1,0,0,1,679.8463134765625,651.5811767578125) matrix(0.2094785700239189,0.9778132381496654,-0.9778132381496654,0.2094785700239189,88.41673340628734,-9.364590408679213)" style="transform:matrix(0.209479, 0.977813, -0.977813, 0.209479, 768.263, 642.217);;animation:none"><path transform="matrix(0.7834070920944214,0,0,0.7834070920944214,0,0)" fill="#ffc46c" d="M87.422,66.495c-2.009-0.544-4.049-0.97-6.107-1.283c10.617-11.116,15.747-27.37,13.129-42.549 c-5.236,1.77-10.223,4.252-14.824,7.313c-4.13,2.747-7.948,5.961-11.374,9.55C67.425,24.863,61.344,10.451,50.991,0 c-4.015,5.451-7.281,11.444-9.753,17.744c-3.579,9.122-5.501,18.893-5.669,28.691c-4.79-7.979-11.256-14.955-18.858-20.322 c-4.514-3.187-9.431-5.806-14.616-7.72c-3.361,16.717,2.731,35.015,15.445,46.379c0.369,0.33,0.745,0.654,1.126,0.972 c-2.359,0.411-4.689,0.983-6.969,1.714C7.582,68.775,3.634,70.61,0,72.945c8.85,9.963,23.134,14.771,36.208,12.186 c3.524-0.697,7.002-1.919,9.887-4.057c0.073-0.054,0.145-0.111,0.218-0.167c-0.987,5.662-2.714,11.136-5.104,16.221l7.509,2.806 c1.698-5.797,2.631-11.748,2.814-17.669c0.107,0.076,0.215,0.152,0.324,0.225c3.142,2.114,6.863,3.232,10.607,3.796 C76.352,88.379,91.161,82.628,100,71.71C96.061,69.427,91.816,67.684,87.422,66.495z" style="fill:rgb(255, 196, 108);transform:matrix(0.783407, 0, 0, 0.783407, 0, 0);;animation:none"></path></g>
<g transform="matrix(1,0,0,1,813.3814697265625,450.36785888671875) matrix(0.3679661731389719,-0.9298391771835924,0.9298391771835924,0.3679661731389719,-14.890267516128205,78.09365020223103)" style="transform:matrix(0.367966, -0.929839, 0.929839, 0.367966, 798.491, 528.462);;animation:none"><path transform="matrix(0.6731252670288086,0,0,0.6731252670288086,0,0)" fill="#ffc46c" d="M87.422,66.495c-2.009-0.544-4.049-0.97-6.107-1.283c10.617-11.116,15.747-27.37,13.129-42.549 c-5.236,1.77-10.223,4.252-14.824,7.313c-4.13,2.747-7.948,5.961-11.374,9.55C67.425,24.863,61.344,10.451,50.991,0 c-4.015,5.451-7.281,11.444-9.753,17.744c-3.579,9.122-5.501,18.893-5.669,28.691c-4.79-7.979-11.256-14.955-18.858-20.322 c-4.514-3.187-9.431-5.806-14.616-7.72c-3.361,16.717,2.731,35.015,15.445,46.379c0.369,0.33,0.745,0.654,1.126,0.972 c-2.359,0.411-4.689,0.983-6.969,1.714C7.582,68.775,3.634,70.61,0,72.945c8.85,9.963,23.134,14.771,36.208,12.186 c3.524-0.697,7.002-1.919,9.887-4.057c0.073-0.054,0.145-0.111,0.218-0.167c-0.987,5.662-2.714,11.136-5.104,16.221l7.509,2.806 c1.698-5.797,2.631-11.748,2.814-17.669c0.107,0.076,0.215,0.152,0.324,0.225c3.142,2.114,6.863,3.232,10.607,3.796 C76.352,88.379,91.161,82.628,100,71.71C96.061,69.427,91.816,67.684,87.422,66.495z" style="fill:rgb(255, 196, 108);transform:matrix(0.673125, 0, 0, 0.673125, 0, 0);;animation:none"></path></g>
<g transform="matrix(1,0,0,1,1465.639892578125,-7.882530212402344) matrix(0.9954781462628787,0.09499084331146151,-0.09499084331146151,0.9954781462628787,4.975634852429138,-4.523449478717012)" style="transform:matrix(0.995478, 0.0949908, -0.0949908, 0.995478, 1470.62, -12.406);;animation:none"><path transform="matrix(0.7451834082603455,0,0,0.7451834082603455,0,0)" fill="#f86161" d="M87.422,66.495c-2.009-0.544-4.049-0.97-6.107-1.283c10.617-11.116,15.747-27.37,13.129-42.549 c-5.236,1.77-10.223,4.252-14.824,7.313c-4.13,2.747-7.948,5.961-11.374,9.55C67.425,24.863,61.344,10.451,50.991,0 c-4.015,5.451-7.281,11.444-9.753,17.744c-3.579,9.122-5.501,18.893-5.669,28.691c-4.79-7.979-11.256-14.955-18.858-20.322 c-4.514-3.187-9.431-5.806-14.616-7.72c-3.361,16.717,2.731,35.015,15.445,46.379c0.369,0.33,0.745,0.654,1.126,0.972 c-2.359,0.411-4.689,0.983-6.969,1.714C7.582,68.775,3.634,70.61,0,72.945c8.85,9.963,23.134,14.771,36.208,12.186 c3.524-0.697,7.002-1.919,9.887-4.057c0.073-0.054,0.145-0.111,0.218-0.167c-0.987,5.662-2.714,11.136-5.104,16.221l7.509,2.806 c1.698-5.797,2.631-11.748,2.814-17.669c0.107,0.076,0.215,0.152,0.324,0.225c3.142,2.114,6.863,3.232,10.607,3.796 C76.352,88.379,91.161,82.628,100,71.71C96.061,69.427,91.816,67.684,87.422,66.495z" style="fill:rgb(248, 97, 97);transform:matrix(0.745183, 0, 0, 0.745183, 0, 0);;animation:none"></path></g>
<g transform="matrix(1,0,0,1,48.07957458496094,103.69709777832031) matrix(0.5352633724322573,0.8446852207375518,-0.8446852207375518,0.5352633724322573,65.47109241526472,-18.99742965849046)" style="transform:matrix(0.535263, 0.844685, -0.844685, 0.535263, 113.551, 84.6997);;animation:none"><path transform="matrix(0.7922196984291077,0,0,0.7922196984291077,0,0)" fill="#ff9f32" d="M87.422,66.495c-2.009-0.544-4.049-0.97-6.107-1.283c10.617-11.116,15.747-27.37,13.129-42.549 c-5.236,1.77-10.223,4.252-14.824,7.313c-4.13,2.747-7.948,5.961-11.374,9.55C67.425,24.863,61.344,10.451,50.991,0 c-4.015,5.451-7.281,11.444-9.753,17.744c-3.579,9.122-5.501,18.893-5.669,28.691c-4.79-7.979-11.256-14.955-18.858-20.322 c-4.514-3.187-9.431-5.806-14.616-7.72c-3.361,16.717,2.731,35.015,15.445,46.379c0.369,0.33,0.745,0.654,1.126,0.972 c-2.359,0.411-4.689,0.983-6.969,1.714C7.582,68.775,3.634,70.61,0,72.945c8.85,9.963,23.134,14.771,36.208,12.186 c3.524-0.697,7.002-1.919,9.887-4.057c0.073-0.054,0.145-0.111,0.218-0.167c-0.987,5.662-2.714,11.136-5.104,16.221l7.509,2.806 c1.698-5.797,2.631-11.748,2.814-17.669c0.107,0.076,0.215,0.152,0.324,0.225c3.142,2.114,6.863,3.232,10.607,3.796 C76.352,88.379,91.161,82.628,100,71.71C96.061,69.427,91.816,67.684,87.422,66.495z" style="fill:rgb(255, 159, 50);transform:matrix(0.79222, 0, 0, 0.79222, 0, 0);;animation:none"></path></g>
<g transform="matrix(1,0,0,1,2485.73583984375,609.231689453125) matrix(-0.5828884904069636,0.8125521569419966,-0.8125521569419966,-0.5828884904069636,119.772032367448,38.51681667324834)" style="transform:matrix(-0.582888, 0.812552, -0.812552, -0.582888, 2605.51, 647.749);;animation:none"><path transform="matrix(0.9543638229370117,0,0,0.9543638229370117,0,0)" fill="#ffc46c" d="M87.422,66.495c-2.009-0.544-4.049-0.97-6.107-1.283c10.617-11.116,15.747-27.37,13.129-42.549 c-5.236,1.77-10.223,4.252-14.824,7.313c-4.13,2.747-7.948,5.961-11.374,9.55C67.425,24.863,61.344,10.451,50.991,0 c-4.015,5.451-7.281,11.444-9.753,17.744c-3.579,9.122-5.501,18.893-5.669,28.691c-4.79-7.979-11.256-14.955-18.858-20.322 c-4.514-3.187-9.431-5.806-14.616-7.72c-3.361,16.717,2.731,35.015,15.445,46.379c0.369,0.33,0.745,0.654,1.126,0.972 c-2.359,0.411-4.689,0.983-6.969,1.714C7.582,68.775,3.634,70.61,0,72.945c8.85,9.963,23.134,14.771,36.208,12.186 c3.524-0.697,7.002-1.919,9.887-4.057c0.073-0.054,0.145-0.111,0.218-0.167c-0.987,5.662-2.714,11.136-5.104,16.221l7.509,2.806 c1.698-5.797,2.631-11.748,2.814-17.669c0.107,0.076,0.215,0.152,0.324,0.225c3.142,2.114,6.863,3.232,10.607,3.796 C76.352,88.379,91.161,82.628,100,71.71C96.061,69.427,91.816,67.684,87.422,66.495z" style="fill:rgb(255, 196, 108);transform:matrix(0.954364, 0, 0, 0.954364, 0, 0);;animation:none"></path></g>
<g transform="matrix(1,0,0,1,1480.8779296875,900.022705078125) matrix(-0.9181342680909212,0.39626943580996554,-0.39626943580996554,-0.9181342680909212,115.72018519504434,76.09324161404778)" style="transform:matrix(-0.918134, 0.396269, -0.396269, -0.918134, 1596.6, 976.116);;animation:none"><path transform="matrix(0.604204535484314,0,0,0.604204535484314,0,0)" fill="#ff9f32" d="M87.422,66.495c-2.009-0.544-4.049-0.97-6.107-1.283c10.617-11.116,15.747-27.37,13.129-42.549 c-5.236,1.77-10.223,4.252-14.824,7.313c-4.13,2.747-7.948,5.961-11.374,9.55C67.425,24.863,61.344,10.451,50.991,0 c-4.015,5.451-7.281,11.444-9.753,17.744c-3.579,9.122-5.501,18.893-5.669,28.691c-4.79-7.979-11.256-14.955-18.858-20.322 c-4.514-3.187-9.431-5.806-14.616-7.72c-3.361,16.717,2.731,35.015,15.445,46.379c0.369,0.33,0.745,0.654,1.126,0.972 c-2.359,0.411-4.689,0.983-6.969,1.714C7.582,68.775,3.634,70.61,0,72.945c8.85,9.963,23.134,14.771,36.208,12.186 c3.524-0.697,7.002-1.919,9.887-4.057c0.073-0.054,0.145-0.111,0.218-0.167c-0.987,5.662-2.714,11.136-5.104,16.221l7.509,2.806 c1.698-5.797,2.631-11.748,2.814-17.669c0.107,0.076,0.215,0.152,0.324,0.225c3.142,2.114,6.863,3.232,10.607,3.796 C76.352,88.379,91.161,82.628,100,71.71C96.061,69.427,91.816,67.684,87.422,66.495z" style="fill:rgb(255, 159, 50);transform:matrix(0.604205, 0, 0, 0.604205, 0, 0);;animation:none"></path></g>
<g transform="matrix(1,0,0,1,486.6187744140625,555.928466796875) matrix(0.14663695485780984,0.9891903777686217,-0.9891903777686217,0.14663695485780984,92.12767114554059,-6.79136663132158)" style="transform:matrix(0.146637, 0.98919, -0.98919, 0.146637, 578.746, 549.137);;animation:none"><path transform="matrix(0.5009872317314148,0,0,0.5009872317314148,0,0)" fill="#ff9f32" d="M87.422,66.495c-2.009-0.544-4.049-0.97-6.107-1.283c10.617-11.116,15.747-27.37,13.129-42.549 c-5.236,1.77-10.223,4.252-14.824,7.313c-4.13,2.747-7.948,5.961-11.374,9.55C67.425,24.863,61.344,10.451,50.991,0 c-4.015,5.451-7.281,11.444-9.753,17.744c-3.579,9.122-5.501,18.893-5.669,28.691c-4.79-7.979-11.256-14.955-18.858-20.322 c-4.514-3.187-9.431-5.806-14.616-7.72c-3.361,16.717,2.731,35.015,15.445,46.379c0.369,0.33,0.745,0.654,1.126,0.972 c-2.359,0.411-4.689,0.983-6.969,1.714C7.582,68.775,3.634,70.61,0,72.945c8.85,9.963,23.134,14.771,36.208,12.186 c3.524-0.697,7.002-1.919,9.887-4.057c0.073-0.054,0.145-0.111,0.218-0.167c-0.987,5.662-2.714,11.136-5.104,16.221l7.509,2.806 c1.698-5.797,2.631-11.748,2.814-17.669c0.107,0.076,0.215,0.152,0.324,0.225c3.142,2.114,6.863,3.232,10.607,3.796 C76.352,88.379,91.161,82.628,100,71.71C96.061,69.427,91.816,67.684,87.422,66.495z" style="fill:rgb(255, 159, 50);transform:matrix(0.500987, 0, 0, 0.500987, 0, 0);;animation:none"></path></g>
<g transform="matrix(1,0,0,1,471.7159118652344,116.69827270507812) matrix(-0.8741145321001735,0.48571986244263743,-0.48571986244263743,-0.8741145321001735,117.99171972714055,69.41973348287681)" style="transform:matrix(-0.874115, 0.48572, -0.48572, -0.874115, 589.708, 186.118);;animation:none"><path transform="matrix(0.822033166885376,0,0,0.822033166885376,0,0)" fill="#ff9f32" d="M87.422,66.495c-2.009-0.544-4.049-0.97-6.107-1.283c10.617-11.116,15.747-27.37,13.129-42.549 c-5.236,1.77-10.223,4.252-14.824,7.313c-4.13,2.747-7.948,5.961-11.374,9.55C67.425,24.863,61.344,10.451,50.991,0 c-4.015,5.451-7.281,11.444-9.753,17.744c-3.579,9.122-5.501,18.893-5.669,28.691c-4.79-7.979-11.256-14.955-18.858-20.322 c-4.514-3.187-9.431-5.806-14.616-7.72c-3.361,16.717,2.731,35.015,15.445,46.379c0.369,0.33,0.745,0.654,1.126,0.972 c-2.359,0.411-4.689,0.983-6.969,1.714C7.582,68.775,3.634,70.61,0,72.945c8.85,9.963,23.134,14.771,36.208,12.186 c3.524-0.697,7.002-1.919,9.887-4.057c0.073-0.054,0.145-0.111,0.218-0.167c-0.987,5.662-2.714,11.136-5.104,16.221l7.509,2.806 c1.698-5.797,2.631-11.748,2.814-17.669c0.107,0.076,0.215,0.152,0.324,0.225c3.142,2.114,6.863,3.232,10.607,3.796 C76.352,88.379,91.161,82.628,100,71.71C96.061,69.427,91.816,67.684,87.422,66.495z" style="fill:rgb(255, 159, 50);transform:matrix(0.822033, 0, 0, 0.822033, 0, 0);;animation:none"></path></g>
<g transform="matrix(1,0,0,1,1486.869873046875,343.0395812988281) matrix(-0.6339724018553368,-0.7733556708822761,0.7733556708822761,-0.6339724018553368,43.030836548653035,120.36640363688065)" style="transform:matrix(-0.633972, -0.773356, 0.773356, -0.633972, 1529.9, 463.406);;animation:none"><path transform="matrix(0.6136611104011536,0,0,0.6136611104011536,0,0)" fill="#ffc46c" d="M87.422,66.495c-2.009-0.544-4.049-0.97-6.107-1.283c10.617-11.116,15.747-27.37,13.129-42.549 c-5.236,1.77-10.223,4.252-14.824,7.313c-4.13,2.747-7.948,5.961-11.374,9.55C67.425,24.863,61.344,10.451,50.991,0 c-4.015,5.451-7.281,11.444-9.753,17.744c-3.579,9.122-5.501,18.893-5.669,28.691c-4.79-7.979-11.256-14.955-18.858-20.322 c-4.514-3.187-9.431-5.806-14.616-7.72c-3.361,16.717,2.731,35.015,15.445,46.379c0.369,0.33,0.745,0.654,1.126,0.972 c-2.359,0.411-4.689,0.983-6.969,1.714C7.582,68.775,3.634,70.61,0,72.945c8.85,9.963,23.134,14.771,36.208,12.186 c3.524-0.697,7.002-1.919,9.887-4.057c0.073-0.054,0.145-0.111,0.218-0.167c-0.987,5.662-2.714,11.136-5.104,16.221l7.509,2.806 c1.698-5.797,2.631-11.748,2.814-17.669c0.107,0.076,0.215,0.152,0.324,0.225c3.142,2.114,6.863,3.232,10.607,3.796 C76.352,88.379,91.161,82.628,100,71.71C96.061,69.427,91.816,67.684,87.422,66.495z" style="fill:rgb(255, 196, 108);transform:matrix(0.613661, 0, 0, 0.613661, 0, 0);;animation:none"></path></g>
<g transform="matrix(1,0,0,1,1266.2115478515625,646.144287109375) matrix(0.6935310771645072,-0.7204267103647937,0.7204267103647937,0.6935310771645072,-20.697889376465042,51.34478166001432)" style="transform:matrix(0.693531, -0.720427, 0.720427, 0.693531, 1245.51, 697.489);;animation:none"><path transform="matrix(0.7186707854270935,0,0,0.7186707854270935,0,0)" fill="#ff956e" d="M87.422,66.495c-2.009-0.544-4.049-0.97-6.107-1.283c10.617-11.116,15.747-27.37,13.129-42.549 c-5.236,1.77-10.223,4.252-14.824,7.313c-4.13,2.747-7.948,5.961-11.374,9.55C67.425,24.863,61.344,10.451,50.991,0 c-4.015,5.451-7.281,11.444-9.753,17.744c-3.579,9.122-5.501,18.893-5.669,28.691c-4.79-7.979-11.256-14.955-18.858-20.322 c-4.514-3.187-9.431-5.806-14.616-7.72c-3.361,16.717,2.731,35.015,15.445,46.379c0.369,0.33,0.745,0.654,1.126,0.972 c-2.359,0.411-4.689,0.983-6.969,1.714C7.582,68.775,3.634,70.61,0,72.945c8.85,9.963,23.134,14.771,36.208,12.186 c3.524-0.697,7.002-1.919,9.887-4.057c0.073-0.054,0.145-0.111,0.218-0.167c-0.987,5.662-2.714,11.136-5.104,16.221l7.509,2.806 c1.698-5.797,2.631-11.748,2.814-17.669c0.107,0.076,0.215,0.152,0.324,0.225c3.142,2.114,6.863,3.232,10.607,3.796 C76.352,88.379,91.161,82.628,100,71.71C96.061,69.427,91.816,67.684,87.422,66.495z" style="fill:rgb(255, 149, 110);transform:matrix(0.718671, 0, 0, 0.718671, 0, 0);;animation:none"></path></g>
<g transform="matrix(1,0,0,1,1468.3905029296875,218.67779541015625) matrix(-0.16625678537031224,0.9860824921467423,-0.9860824921467423,-0.16625678537031224,107.61696387585272,9.008714661178495)" style="transform:matrix(-0.166257, 0.986082, -0.986082, -0.166257, 1576.01, 227.687);;animation:none"><path transform="matrix(0.7378537654876709,0,0,0.7378537654876709,0,0)" fill="#ffc46c" d="M87.422,66.495c-2.009-0.544-4.049-0.97-6.107-1.283c10.617-11.116,15.747-27.37,13.129-42.549 c-5.236,1.77-10.223,4.252-14.824,7.313c-4.13,2.747-7.948,5.961-11.374,9.55C67.425,24.863,61.344,10.451,50.991,0 c-4.015,5.451-7.281,11.444-9.753,17.744c-3.579,9.122-5.501,18.893-5.669,28.691c-4.79-7.979-11.256-14.955-18.858-20.322 c-4.514-3.187-9.431-5.806-14.616-7.72c-3.361,16.717,2.731,35.015,15.445,46.379c0.369,0.33,0.745,0.654,1.126,0.972 c-2.359,0.411-4.689,0.983-6.969,1.714C7.582,68.775,3.634,70.61,0,72.945c8.85,9.963,23.134,14.771,36.208,12.186 c3.524-0.697,7.002-1.919,9.887-4.057c0.073-0.054,0.145-0.111,0.218-0.167c-0.987,5.662-2.714,11.136-5.104,16.221l7.509,2.806 c1.698-5.797,2.631-11.748,2.814-17.669c0.107,0.076,0.215,0.152,0.324,0.225c3.142,2.114,6.863,3.232,10.607,3.796 C76.352,88.379,91.161,82.628,100,71.71C96.061,69.427,91.816,67.684,87.422,66.495z" style="fill:rgb(255, 196, 108);transform:matrix(0.737854, 0, 0, 0.737854, 0, 0);;animation:none"></path></g>
<g transform="matrix(1,0,0,1,254.09637451171875,74.30213928222656) matrix(0.2552411065998871,0.9668774366493744,-0.9668774366493744,0.2552411065998871,85.58181650247437,-11.105927162463075)" style="transform:matrix(0.255241, 0.966877, -0.966877, 0.255241, 339.678, 63.1962);;animation:none"><path transform="matrix(0.7747355699539185,0,0,0.7747355699539185,0,0)" fill="#ffc46c" d="M87.422,66.495c-2.009-0.544-4.049-0.97-6.107-1.283c10.617-11.116,15.747-27.37,13.129-42.549 c-5.236,1.77-10.223,4.252-14.824,7.313c-4.13,2.747-7.948,5.961-11.374,9.55C67.425,24.863,61.344,10.451,50.991,0 c-4.015,5.451-7.281,11.444-9.753,17.744c-3.579,9.122-5.501,18.893-5.669,28.691c-4.79-7.979-11.256-14.955-18.858-20.322 c-4.514-3.187-9.431-5.806-14.616-7.72c-3.361,16.717,2.731,35.015,15.445,46.379c0.369,0.33,0.745,0.654,1.126,0.972 c-2.359,0.411-4.689,0.983-6.969,1.714C7.582,68.775,3.634,70.61,0,72.945c8.85,9.963,23.134,14.771,36.208,12.186 c3.524-0.697,7.002-1.919,9.887-4.057c0.073-0.054,0.145-0.111,0.218-0.167c-0.987,5.662-2.714,11.136-5.104,16.221l7.509,2.806 c1.698-5.797,2.631-11.748,2.814-17.669c0.107,0.076,0.215,0.152,0.324,0.225c3.142,2.114,6.863,3.232,10.607,3.796 C76.352,88.379,91.161,82.628,100,71.71C96.061,69.427,91.816,67.684,87.422,66.495z" style="fill:rgb(255, 196, 108);transform:matrix(0.774736, 0, 0, 0.774736, 0, 0);;animation:none"></path></g>
<g transform="matrix(1,0,0,1,187.37362670898438,330.5816650390625) matrix(0.35787226013002976,0.9337705528819294,-0.9337705528819294,0.35787226013002976,78.79491463759499,-14.582140650597964)" style="transform:matrix(0.357872, 0.933771, -0.933771, 0.357872, 266.169, 316);;animation:none"><path transform="matrix(1.0546516180038452,0,0,1.0546516180038452,0,0)" fill="#ffc46c" d="M87.422,66.495c-2.009-0.544-4.049-0.97-6.107-1.283c10.617-11.116,15.747-27.37,13.129-42.549 c-5.236,1.77-10.223,4.252-14.824,7.313c-4.13,2.747-7.948,5.961-11.374,9.55C67.425,24.863,61.344,10.451,50.991,0 c-4.015,5.451-7.281,11.444-9.753,17.744c-3.579,9.122-5.501,18.893-5.669,28.691c-4.79-7.979-11.256-14.955-18.858-20.322 c-4.514-3.187-9.431-5.806-14.616-7.72c-3.361,16.717,2.731,35.015,15.445,46.379c0.369,0.33,0.745,0.654,1.126,0.972 c-2.359,0.411-4.689,0.983-6.969,1.714C7.582,68.775,3.634,70.61,0,72.945c8.85,9.963,23.134,14.771,36.208,12.186 c3.524-0.697,7.002-1.919,9.887-4.057c0.073-0.054,0.145-0.111,0.218-0.167c-0.987,5.662-2.714,11.136-5.104,16.221l7.509,2.806 c1.698-5.797,2.631-11.748,2.814-17.669c0.107,0.076,0.215,0.152,0.324,0.225c3.142,2.114,6.863,3.232,10.607,3.796 C76.352,88.379,91.161,82.628,100,71.71C96.061,69.427,91.816,67.684,87.422,66.495z" style="fill:rgb(255, 196, 108);transform:matrix(1.05465, 0, 0, 1.05465, 0, 0);;animation:none"></path></g>
<g transform="matrix(1,0,0,1,1189.706787109375,668.31005859375) matrix(-0.5016327079252113,0.865080705101911,-0.865080705101911,-0.5016327079252113,118.33567065135611,31.827600141165014)" style="transform:matrix(-0.501633, 0.865081, -0.865081, -0.501633, 1308.04, 700.138);;animation:none"><path transform="matrix(0.7567218542098999,0,0,0.7567218542098999,0,0)" fill="#ff9f32" d="M87.422,66.495c-2.009-0.544-4.049-0.97-6.107-1.283c10.617-11.116,15.747-27.37,13.129-42.549 c-5.236,1.77-10.223,4.252-14.824,7.313c-4.13,2.747-7.948,5.961-11.374,9.55C67.425,24.863,61.344,10.451,50.991,0 c-4.015,5.451-7.281,11.444-9.753,17.744c-3.579,9.122-5.501,18.893-5.669,28.691c-4.79-7.979-11.256-14.955-18.858-20.322 c-4.514-3.187-9.431-5.806-14.616-7.72c-3.361,16.717,2.731,35.015,15.445,46.379c0.369,0.33,0.745,0.654,1.126,0.972 c-2.359,0.411-4.689,0.983-6.969,1.714C7.582,68.775,3.634,70.61,0,72.945c8.85,9.963,23.134,14.771,36.208,12.186 c3.524-0.697,7.002-1.919,9.887-4.057c0.073-0.054,0.145-0.111,0.218-0.167c-0.987,5.662-2.714,11.136-5.104,16.221l7.509,2.806 c1.698-5.797,2.631-11.748,2.814-17.669c0.107,0.076,0.215,0.152,0.324,0.225c3.142,2.114,6.863,3.232,10.607,3.796 C76.352,88.379,91.161,82.628,100,71.71C96.061,69.427,91.816,67.684,87.422,66.495z" style="fill:rgb(255, 159, 50);transform:matrix(0.756722, 0, 0, 0.756722, 0, 0);;animation:none"></path></g>
<g transform="matrix(1,0,0,1,1285.4346923828125,1027.2548828125) matrix(-0.9993070859717497,0.03722026231302267,-0.03722026231302267,-0.9993070859717497,101.82636741423862,98.10434118293635)" style="transform:matrix(-0.999307, 0.0372203, -0.0372203, -0.999307, 1387.26, 1125.36);;animation:none"><path transform="matrix(0.9927812218666077,0,0,0.9927812218666077,0,0)" fill="#f86161" d="M87.422,66.495c-2.009-0.544-4.049-0.97-6.107-1.283c10.617-11.116,15.747-27.37,13.129-42.549 c-5.236,1.77-10.223,4.252-14.824,7.313c-4.13,2.747-7.948,5.961-11.374,9.55C67.425,24.863,61.344,10.451,50.991,0 c-4.015,5.451-7.281,11.444-9.753,17.744c-3.579,9.122-5.501,18.893-5.669,28.691c-4.79-7.979-11.256-14.955-18.858-20.322 c-4.514-3.187-9.431-5.806-14.616-7.72c-3.361,16.717,2.731,35.015,15.445,46.379c0.369,0.33,0.745,0.654,1.126,0.972 c-2.359,0.411-4.689,0.983-6.969,1.714C7.582,68.775,3.634,70.61,0,72.945c8.85,9.963,23.134,14.771,36.208,12.186 c3.524-0.697,7.002-1.919,9.887-4.057c0.073-0.054,0.145-0.111,0.218-0.167c-0.987,5.662-2.714,11.136-5.104,16.221l7.509,2.806 c1.698-5.797,2.631-11.748,2.814-17.669c0.107,0.076,0.215,0.152,0.324,0.225c3.142,2.114,6.863,3.232,10.607,3.796 C76.352,88.379,91.161,82.628,100,71.71C96.061,69.427,91.816,67.684,87.422,66.495z" style="fill:rgb(248, 97, 97);transform:matrix(0.992781, 0, 0, 0.992781, 0, 0);;animation:none"></path></g>
<g transform="matrix(1,0,0,1,1123.7059326171875,619.465576171875) matrix(0.8348077507704946,0.5505415690513368,-0.5505415690513368,0.8348077507704946,35.78669091404211,-19.26746599109157)" style="transform:matrix(0.834808, 0.550542, -0.550542, 0.834808, 1159.49, 600.198);;animation:none"><path transform="matrix(0.8629677295684814,0,0,0.8629677295684814,0,0)" fill="#ff9f32" d="M87.422,66.495c-2.009-0.544-4.049-0.97-6.107-1.283c10.617-11.116,15.747-27.37,13.129-42.549 c-5.236,1.77-10.223,4.252-14.824,7.313c-4.13,2.747-7.948,5.961-11.374,9.55C67.425,24.863,61.344,10.451,50.991,0 c-4.015,5.451-7.281,11.444-9.753,17.744c-3.579,9.122-5.501,18.893-5.669,28.691c-4.79-7.979-11.256-14.955-18.858-20.322 c-4.514-3.187-9.431-5.806-14.616-7.72c-3.361,16.717,2.731,35.015,15.445,46.379c0.369,0.33,0.745,0.654,1.126,0.972 c-2.359,0.411-4.689,0.983-6.969,1.714C7.582,68.775,3.634,70.61,0,72.945c8.85,9.963,23.134,14.771,36.208,12.186 c3.524-0.697,7.002-1.919,9.887-4.057c0.073-0.054,0.145-0.111,0.218-0.167c-0.987,5.662-2.714,11.136-5.104,16.221l7.509,2.806 c1.698-5.797,2.631-11.748,2.814-17.669c0.107,0.076,0.215,0.152,0.324,0.225c3.142,2.114,6.863,3.232,10.607,3.796 C76.352,88.379,91.161,82.628,100,71.71C96.061,69.427,91.816,67.684,87.422,66.495z" style="fill:rgb(255, 159, 50);transform:matrix(0.862968, 0, 0, 0.862968, 0, 0);;animation:none"></path></g>
<g transform="matrix(1,0,0,1,1121.0279541015625,722.7822265625) matrix(-0.9555821690000658,0.2947248179049904,-0.2947248179049904,-0.9555821690000658,112.5153493452528,83.04286755475377)" style="transform:matrix(-0.955582, 0.294725, -0.294725, -0.955582, 1233.54, 805.825);;animation:none"><path transform="matrix(0.8263759613037109,0,0,0.8263759613037109,0,0)" fill="#ff956e" d="M87.422,66.495c-2.009-0.544-4.049-0.97-6.107-1.283c10.617-11.116,15.747-27.37,13.129-42.549 c-5.236,1.77-10.223,4.252-14.824,7.313c-4.13,2.747-7.948,5.961-11.374,9.55C67.425,24.863,61.344,10.451,50.991,0 c-4.015,5.451-7.281,11.444-9.753,17.744c-3.579,9.122-5.501,18.893-5.669,28.691c-4.79-7.979-11.256-14.955-18.858-20.322 c-4.514-3.187-9.431-5.806-14.616-7.72c-3.361,16.717,2.731,35.015,15.445,46.379c0.369,0.33,0.745,0.654,1.126,0.972 c-2.359,0.411-4.689,0.983-6.969,1.714C7.582,68.775,3.634,70.61,0,72.945c8.85,9.963,23.134,14.771,36.208,12.186 c3.524-0.697,7.002-1.919,9.887-4.057c0.073-0.054,0.145-0.111,0.218-0.167c-0.987,5.662-2.714,11.136-5.104,16.221l7.509,2.806 c1.698-5.797,2.631-11.748,2.814-17.669c0.107,0.076,0.215,0.152,0.324,0.225c3.142,2.114,6.863,3.232,10.607,3.796 C76.352,88.379,91.161,82.628,100,71.71C96.061,69.427,91.816,67.684,87.422,66.495z" style="fill:rgb(255, 149, 110);transform:matrix(0.826376, 0, 0, 0.826376, 0, 0);;animation:none"></path></g>
<g transform="matrix(1,0,0,1,814.0118408203125,-73.00989532470703) matrix(0.5112740894291053,0.8594177130350754,-0.8594177130350754,0.5112740894291053,67.4071811802985,-18.53459012320903)" style="transform:matrix(0.511274, 0.859418, -0.859418, 0.511274, 881.419, -91.5445);;animation:none"><path transform="matrix(0.5800431370735168,0,0,0.5800431370735168,0,0)" fill="#ff956e" d="M87.422,66.495c-2.009-0.544-4.049-0.97-6.107-1.283c10.617-11.116,15.747-27.37,13.129-42.549 c-5.236,1.77-10.223,4.252-14.824,7.313c-4.13,2.747-7.948,5.961-11.374,9.55C67.425,24.863,61.344,10.451,50.991,0 c-4.015,5.451-7.281,11.444-9.753,17.744c-3.579,9.122-5.501,18.893-5.669,28.691c-4.79-7.979-11.256-14.955-18.858-20.322 c-4.514-3.187-9.431-5.806-14.616-7.72c-3.361,16.717,2.731,35.015,15.445,46.379c0.369,0.33,0.745,0.654,1.126,0.972 c-2.359,0.411-4.689,0.983-6.969,1.714C7.582,68.775,3.634,70.61,0,72.945c8.85,9.963,23.134,14.771,36.208,12.186 c3.524-0.697,7.002-1.919,9.887-4.057c0.073-0.054,0.145-0.111,0.218-0.167c-0.987,5.662-2.714,11.136-5.104,16.221l7.509,2.806 c1.698-5.797,2.631-11.748,2.814-17.669c0.107,0.076,0.215,0.152,0.324,0.225c3.142,2.114,6.863,3.232,10.607,3.796 C76.352,88.379,91.161,82.628,100,71.71C96.061,69.427,91.816,67.684,87.422,66.495z" style="fill:rgb(255, 149, 110);transform:matrix(0.580043, 0, 0, 0.580043, 0, 0);;animation:none"></path></g>
<g></g></g><!-- [ldio] generated by https://loading.io --></svg>